# xmcd CD database file
#
# Track frame offsets:
#	150
#	21000
#	38775
#	63300
#	78475
#	101350
#	122300
#	140525
#	159700
#	177675
#	207600
#	224800
#
# Disc length: 3296 seconds
#
# Revision: 1
# Processed by: cddbd v1.5.2PL0 Copyright (c) Steve Scherf et al.
# Submitted via: jetAudio 7
#
DISCID=af0cde0c
DTITLE=ChingMo Music - Sea Wave
DYEAR=1900
DGENRE=Nature Soft Music
TTITLE0=On The Beach
TTITLE1=I JustCan Stop Loving You
TTITLE2=You Can Have Me anytime
TTITLE3=Take Me Breath Away
TTITLE4=Imagine
TTITLE5=Ballerina Girl
TTITLE6=Killing Me Softly With His Song
TTITLE7=If We Hold ON Together
TTITLE8=Stand By Me
TTITLE9=Up Where We Belong
TTITLE10=Don't Known Much
TTITLE11=Stay With Me
EXTD=Nature Soft Music  5 Sea Wave
EXTT0=
EXTT1=
EXTT2=
EXTT3=
EXTT4=
EXTT5=
EXTT6=
EXTT7=
EXTT8=
EXTT9=
EXTT10=
EXTT11=
PLAYORDER=
